<svg xmlns="http://www.w3.org/2000/svg" viewBox="0 0 520 480" fill="none" aria-hidden="true">
  <defs>
    <linearGradient id="bg" x1="0" y1="0" x2="1" y2="1">
      <stop offset="0%" stop-color="#EFF6FF"/>
      <stop offset="100%" stop-color="#DBEAFE"/>
    </linearGradient>
    <linearGradient id="board" x1="0" y1="0" x2="0" y2="1">
      <stop offset="0%" stop-color="#1E3A8A"/>
      <stop offset="100%" stop-color="#1E40AF"/>
    </linearGradient>
  </defs>
  <rect width="520" height="480" rx="28" fill="url(#bg)"/>
  <ellipse cx="260" cy="430" rx="180" ry="18" fill="#BFDBFE" opacity=".6"/>
  <!-- Board -->
  <rect x="90" y="70" width="340" height="200" rx="16" fill="url(#board)"/>
  <rect x="106" y="88" width="308" height="164" rx="10" fill="#172554"/>
  <text x="130" y="130" fill="#93C5FD" font-family="Segoe UI, Arial, sans-serif" font-size="22" font-weight="600">+ f(x) dx = F(x) + C</text>
  <text x="130" y="170" fill="#FDE68A" font-family="Segoe UI, Arial, sans-serif" font-size="18">y = mx + c</text>
  <text x="130" y="210" fill="#A7F3D0" font-family="Segoe UI, Arial, sans-serif" font-size="18">a˛ + b˛ = c˛</text>
  <path d="M300 150 Q340 120 380 160" stroke="#FCA5A5" stroke-width="2.5" fill="none"/>
  <circle cx="300" cy="150" r="3" fill="#FCA5A5"/>
  <circle cx="380" cy="160" r="3" fill="#FCA5A5"/>
  <!-- Teacher -->
  <circle cx="180" cy="320" r="28" fill="#FBBF24"/>
  <rect x="155" y="350" width="50" height="70" rx="18" fill="#2563EB"/>
  <rect x="140" y="365" width="18" height="50" rx="8" fill="#1D4ED8"/>
  <rect x="202" y="365" width="18" height="50" rx="8" fill="#1D4ED8"/>
  <line x1="220" y1="360" x2="270" y2="300" stroke="#FBBF24" stroke-width="6" stroke-linecap="round"/>
  <!-- Students -->
  <circle cx="300" cy="340" r="20" fill="#F59E0B"/>
  <rect x="280" y="362" width="40" height="55" rx="14" fill="#3B82F6"/>
  <circle cx="370" cy="345" r="20" fill="#FB923C"/>
  <rect x="350" y="367" width="40" height="50" rx="14" fill="#60A5FA"/>
  <!-- Desk -->
  <rect x="250" y="415" width="180" height="12" rx="6" fill="#93C5FD"/>
  <!-- Floating formulas -->
  <g opacity=".85">
    <rect x="28" y="120" width="56" height="36" rx="12" fill="#fff" stroke="#BFDBFE"/>
    <text x="40" y="144" fill="#2563EB" font-family="Segoe UI, Arial, sans-serif" font-size="16" font-weight="700">Ŕ</text>
    <rect x="430" y="100" width="64" height="36" rx="12" fill="#fff" stroke="#BFDBFE"/>
    <text x="442" y="124" fill="#EA580C" font-family="Segoe UI, Arial, sans-serif" font-size="14" font-weight="700">Łn</text>
    <rect x="40" y="250" width="70" height="36" rx="12" fill="#fff" stroke="#BFDBFE"/>
    <text x="50" y="274" fill="#059669" font-family="Segoe UI, Arial, sans-serif" font-size="14" font-weight="700">”x</text>
    <rect x="420" y="250" width="72" height="36" rx="12" fill="#fff" stroke="#BFDBFE"/>
    <text x="432" y="274" fill="#7C3AED" font-family="Segoe UI, Arial, sans-serif" font-size="14" font-weight="700">lim</text>
  </g>
</svg>
